<?xml version="1.0" encoding="UTF-8" standalone="no"?>
<svg width="347px" height="347px" viewBox="0 0 347 347" version="1.1" xmlns="http://www.w3.org/2000/svg" xmlns:xlink="http://www.w3.org/1999/xlink">
    <!-- Generator: Sketch 41.1 (35376) - http://www.bohemiancoding.com/sketch -->
    <title>Papaya2 Rotated</title>
    <desc>Created with Sketch.</desc>
    <defs></defs>
    <g id="Page-1" stroke="none" stroke-width="1" fill="none" fill-rule="evenodd">
        <g id="Papaya2-Rotated" transform="translate(178.991684, 168.000000) rotate(-315.000000) translate(-178.991684, -168.000000) translate(45.491684, -28.000000)">
            <path d="M133.843503,390.778646 C239.281445,399.776253 279.518227,282.788756 262.346975,196.560488 C258.191111,167.60744 238.636552,137.864286 225.010565,109.563983 C190.766528,45.5955542 222.968165,2.18809085 133.843503,1.00475898 C44.7188401,-0.178572883 73.8260685,51.3380915 43.4996864,109.214242 C29.3733948,135.715763 13.5223005,159.03134 4.87744954,196.916474 C-15.4776165,285.131748 28.8636714,399.776253 133.843503,390.778646 Z" id="Oval-2-Copy" fill="#2B2B2B"></path>
            <path d="M133.916912,384.908408 C234.241223,393.619046 272.526563,280.362748 256.188098,196.884645 C252.23379,168.855025 233.627606,140.0605 220.662466,112.662807 C188.07923,50.7345875 218.71912,8.71156192 133.916912,7.56597124 C49.1147038,6.42038056 76.8102617,56.2939723 47.9546778,112.324221 C34.5134968,137.980502 19.4311643,160.552452 11.2055796,197.229277 C-8.16228675,282.631013 34.0284945,393.619046 133.916912,384.908408 Z" id="Oval-2-Copy-2" fill="#5ABB4F"></path>
            <path d="M133.859498,377.193933 C225.864181,385.513982 260.974619,277.336144 245.99106,197.601233 C242.364672,170.828474 225.30145,143.325106 213.411474,117.155938 C183.530278,58.0046049 211.629285,17.8659092 133.859498,16.7716873 C56.0897104,15.6774654 81.4885494,63.3147046 55.0258822,116.832534 C42.6993425,141.338377 28.8677476,162.898191 21.3242887,197.930412 C3.5625479,279.502699 42.2545601,385.513982 133.859498,377.193933 Z" id="Oval-2-Copy-3" fill="#FEDF54"></path>
            <path d="M133.127956,366.48816 C214.213128,373.803753 245.156509,278.685928 231.951263,208.577195 C228.75527,185.036637 213.717184,160.853676 203.238362,137.84384 C176.903595,85.8336853 201.667691,50.5408245 133.127956,49.578705 C64.5882215,48.6165855 86.9726171,90.5027112 63.650653,137.559479 C52.78708,159.106799 40.5970782,178.063756 33.9489095,208.866633 C18.2952084,280.590921 52.3950863,373.803753 133.127956,366.48816 Z" id="Oval-2-Copy-4" fill="#FFAA74"></path>
            <ellipse id="Oval-3" fill="#FBF556" cx="133.187318" cy="233.950432" rx="34.1216197" ry="70.2117944"></ellipse>
            <g id="Group-3" transform="translate(89.000000, 161.000000)" fill="#3E3E3E">
                <circle id="Oval-7" cx="44.5" cy="50.5" r="8.5"></circle>
                <circle id="Oval-7-Copy" cx="26.5" cy="61.5" r="8.5"></circle>
                <circle id="Oval-7-Copy-8" cx="80.5" cy="29.5" r="8.5"></circle>
                <circle id="Oval-7-Copy-7" cx="62.5" cy="40.5" r="8.5"></circle>
                <circle id="Oval-7-Copy-4" cx="8.5" cy="71.5" r="8.5"></circle>
                <circle id="Oval-7-Copy-3" cx="44.5" cy="70.5" r="8.5"></circle>
                <circle id="Oval-7-Copy-2" cx="26.5" cy="81.5" r="8.5"></circle>
                <circle id="Oval-7-Copy-10" cx="80.5" cy="49.5" r="8.5"></circle>
                <circle id="Oval-7-Copy-9" cx="62.5" cy="60.5" r="8.5"></circle>
                <circle id="Oval-7-Copy-5" cx="8.5" cy="91.5" r="8.5"></circle>
                <circle id="Oval-7-Copy-14" cx="44.5" cy="92.5" r="8.5"></circle>
                <circle id="Oval-7-Copy-13" cx="26.5" cy="103.5" r="8.5"></circle>
                <circle id="Oval-7-Copy-12" cx="80.5" cy="71.5" r="8.5"></circle>
                <circle id="Oval-7-Copy-11" cx="62.5" cy="82.5" r="8.5"></circle>
                <circle id="Oval-7-Copy-6" cx="8.5" cy="113.5" r="8.5"></circle>
                <circle id="Oval-7-Copy-19" cx="44.5" cy="114.5" r="8.5"></circle>
                <circle id="Oval-7-Copy-18" cx="26.5" cy="125.5" r="8.5"></circle>
                <circle id="Oval-7-Copy-17" cx="80.5" cy="93.5" r="8.5"></circle>
                <circle id="Oval-7-Copy-16" cx="62.5" cy="104.5" r="8.5"></circle>
                <circle id="Oval-7-Copy-24" cx="44.5" cy="135.5" r="8.5"></circle>
                <circle id="Oval-7-Copy-22" cx="80.5" cy="114.5" r="8.5"></circle>
                <circle id="Oval-7-Copy-21" cx="62.5" cy="125.5" r="8.5"></circle>
                <circle id="Oval-7-Copy-29" cx="44.5" cy="29.5" r="8.5"></circle>
                <circle id="Oval-7-Copy-28" cx="26.5" cy="40.5" r="8.5"></circle>
                <circle id="Oval-7-Copy-26" cx="62.5" cy="19.5" r="8.5"></circle>
                <circle id="Oval-7-Copy-25" cx="8.5" cy="50.5" r="8.5"></circle>
                <circle id="Oval-7-Copy-34" cx="44.5" cy="8.5" r="8.5"></circle>
                <circle id="Oval-7-Copy-33" cx="26.5" cy="19.5" r="8.5"></circle>
                <circle id="Oval-7-Copy-30" cx="8.5" cy="29.5" r="8.5"></circle>
            </g>
        </g>
        <g id="Papaya2-Grey-Rotated" transform="translate(538.991684, 168.000000) rotate(-315.000000) translate(-538.991684, -168.000000) translate(405.491684, -28.000000)">
            <path d="M133.843503,390.778646 C239.281445,399.776253 279.518227,282.788756 262.346975,196.560488 C258.191111,167.60744 238.636552,137.864286 225.010565,109.563983 C190.766528,45.5955542 222.968165,2.18809085 133.843503,1.00475898 C44.7188401,-0.178572883 73.8260685,51.3380915 43.4996864,109.214242 C29.3733948,135.715763 13.5223005,159.03134 4.87744954,196.916474 C-15.4776165,285.131748 28.8636714,399.776253 133.843503,390.778646 Z" id="Oval-2-Copy" fill="#2B2B2B"></path>
            <path d="M133.916912,384.908408 C234.241223,393.619046 272.526563,280.362748 256.188098,196.884645 C252.23379,168.855025 233.627606,140.0605 220.662466,112.662807 C188.07923,50.7345875 218.71912,8.71156192 133.916912,7.56597124 C49.1147038,6.42038056 76.8102617,56.2939723 47.9546778,112.324221 C34.5134968,137.980502 19.4311643,160.552452 11.2055796,197.229277 C-8.16228675,282.631013 34.0284945,393.619046 133.916912,384.908408 Z" id="Oval-2-Copy-2" fill="#FFFFFF"></path>
            <path d="M133.859498,377.193933 C225.864181,385.513982 260.974619,277.336144 245.99106,197.601233 C242.364672,170.828474 225.30145,143.325106 213.411474,117.155938 C183.530278,58.0046049 211.629285,17.8659092 133.859498,16.7716873 C56.0897104,15.6774654 81.4885494,63.3147046 55.0258822,116.832534 C42.6993425,141.338377 28.8677476,162.898191 21.3242887,197.930412 C3.5625479,279.502699 42.2545601,385.513982 133.859498,377.193933 Z" id="Oval-2-Copy-3" fill="#D9D9D9"></path>
            <path d="M133.127956,366.48816 C214.213128,373.803753 245.156509,278.685928 231.951263,208.577195 C228.75527,185.036637 213.717184,160.853676 203.238362,137.84384 C176.903595,85.8336853 201.667691,50.5408245 133.127956,49.578705 C64.5882215,48.6165855 86.9726171,90.5027112 63.650653,137.559479 C52.78708,159.106799 40.5970782,178.063756 33.9489095,208.866633 C18.2952084,280.590921 52.3950863,373.803753 133.127956,366.48816 Z" id="Oval-2-Copy-4" fill="#FFFFFF"></path>
        </g>
    </g>
</svg>